<svg width="52" height="52" viewBox="0 0 52 52" fill="none" xmlns="http://www.w3.org/2000/svg">
<rect x="0.75" y="0.75" width="50.5" height="50.5" rx="25.25" fill="white"/>
<rect x="0.75" y="0.75" width="50.5" height="50.5" rx="25.25" stroke="#222222" stroke-width="1.5"/>
<path d="M22.9676 16.8438H20.8744C20.3193 16.8438 19.7869 17.0849 19.3943 17.5143C19.0018 17.9436 18.7813 18.5259 18.7812 19.1331V32.8689C18.7812 33.476 19.0018 34.0583 19.3943 34.4877C19.7869 34.917 20.3193 35.1582 20.8744 35.1582H22.9676C23.5227 35.1582 24.0552 34.917 24.4477 34.4877C24.8402 34.0583 25.0608 33.476 25.0608 32.8689V19.1331C25.0608 18.5259 24.8402 17.9436 24.4477 17.5143C24.0552 17.0849 23.5227 16.8438 22.9676 16.8438Z" fill="#222222"/>
<path d="M31.3403 16.8438H29.2471C28.692 16.8438 28.1596 17.0849 27.767 17.5143C27.3745 17.9436 27.154 18.5259 27.154 19.1331V32.8689C27.154 33.476 27.3745 34.0583 27.767 34.4877C28.1596 34.917 28.692 35.1582 29.2471 35.1582H31.3403C31.8954 35.1582 32.4279 34.917 32.8204 34.4877C33.2129 34.0583 33.4335 33.476 33.4335 32.8689V19.1331C33.4335 18.5259 33.2129 17.9436 32.8204 17.5143C32.4279 17.0849 31.8954 16.8438 31.3403 16.8438Z" fill="#222222"/>
</svg>
